ply
format ascii 1.0
comment Generated by PyMesh
element vertex 86
property float x
property float y
property float z
property list uchar float att_feature
property uchar blue
property uchar green
property uchar red
element face 180
property list uchar int vertex_indices
end_header
42.359 62.1567 10.5843 29 0.999937 0.208807 0.871289 -0.866667 0 0 0 0 1 0 0 0 0 0 0 0 0 0 0 0 0 0 0 0 1 0 0 0 0 255 0 0
5.65125 52.931 -28.4062 29 0.702281 -0.0480893 0 0.933333 0 0 0 1 0 0 0 0 0 0 0 0 0 0 0 0 0 0 0 0 1 0 0 0 0 127 255 0
14.1165 43.7238 2.02725 29 -0.877021 0.0307809 0 0.555584 0 0 0 0 0 0 0 0 0 0.914322 0 0 0 0 0 0 0.0856782 0 0 0 0.0856782 0.914322 0 0 0 138 233 0
2.372 62.0345 -17.451 29 0.999901 -0.519453 -0.23388 -0.777778 0 0 0 0 0 1 0 0 0 0 0 0 0 0 0 0 0 0 0 0 0 0 0 1 0 0 0 255
28.2647 48.5672 19.0658 29 -0.999891 -0.44134 -0.161716 -0.777778 0 0 0 0 0 0 0 0 0 0 0 0 0 0 0 0 0 1 0 0 0 0 0 1 0 0 0 255
11.3065 37.6115 18.425 29 0.0740332 -0.0665293 -0.312806 0.405636 0 0 0 0 0 0.0783959 0 0 0 0.921604 0 0 0 0 0 0 0 0 0 0 0.0783959 0 0 0.921604 0 39 0 216
36.961 67.13 25.1015 29 0.999887 -0.0416983 0 0.4 0 0 0 0 0 0 0 0 0 0 1 0 0 0 0 0 0 0 0 0 1 0 0 0 0 127 255 0
22.4255 45.5163 -13.9817 29 0.187419 -0.123014 -0.12964 -0.484047 0 0 0 0 0.50806 0 0 0.49194 0 0 0 0 0 0 0 0 0 0 0 0 0.50806 0 0 0.49194 0 65 130 125
40.7275 67.4215 8.095 29 0.078124 0.046784 0 -0.866667 0 0 0 0 1 0 0 0 0 0 0 0 0 0 0 0 0 0 0 0 1 0 0 0 0 195 120 0
-15.3635 40.4518 -26.5035 29 0.999919 0.0990067 0.68445 -0.777778 0 0 0 0 0 1 0 0 0 0 0 0 0 0 0 0 0 0 0 0 1 0 0 0 0 255 0 0
-2.977 42.8408 -1.7115 29 -0.84207 -0.0597547 0 0.180059 0.703555 0 0 0 0 0 0 0 0.296445 0 0 0 0 0 0 0 0 0 0 0 0.296445 0 0.703555 0 0 255 179 0
24.3123 39.3647 -4.6975 29 -0.279486 -0.09127 0 -0.824289 0 0 0 0 0.523244 0 0 0 0 0 0 0 0 0 0 0 0 0.476756 0 0 1 0 0 0 0 127 255 0
12.3474 54.0192 -24.3529 29 0.999867 -0.0504777 0 0.4 0 0 0 0 0 0 0 0 0 0 1 0 0 0 0 0 0 0 0 0 0.632091 0.367909 0 0 0 127 255 0
37.6525 81.929 15.1585 29 0.99986 -0.146266 0 -0.777778 0 1 0 0 0 0 0 0 0 0 0 0 0 0 0 0 0 0 0 0 0.861404 0.138596 0 0 0 127 255 0
22.9023 56.879 -9.3565 29 0.0964244 -0.065552 0 -0.777778 0 0 1 0 0 0 0 0 0 0 0 0 0 0 0 0 0 0 0 0 0.919667 0.0803325 0 0 0 127 255 0
27.7069 73.9047 -16.2016 29 0.0780202 0.0467633 0 0.4 0 0 0 0 0 0 0 0 0 0 1 0 0 0 0 0 0 0 0 0 0.0460295 0.95397 0 0 0 127 255 0
4.572 34.7401 33.8846 29 0.999904 0.310769 0.541342 -0.177778 0 0 0 0 0 0 0 0 0 0 0 0 0 0 0 0 0 0 0 1 1 0 0 0 0 255 0 0
-3.04463 51.3274 37.1995 29 -0.0977217 0.0811293 0.272406 -1 0 0 0 0 0 0 0 0 0 0 0 0 0 0 1 0 0 0 0 0 0.662554 0 0 0 0.337446 255 0 0
0.764 40.4249 26.6816 29 -0.999873 -0.0610437 -0.0647027 -0.38306 0 0.0651406 0 0 0 0 0.934859 0 0 0 0 0 0 0 0 0 0 0 0 0 0.0651406 0 0 0.934859 0 8 17 238
18.602 23.957 7.234 29 0.337988 -0.0544107 0 -0.193236 0 0 0 0 0 0 0.0869505 0 0 0 0 0 0 0 0 0 0 0 0 0.91305 1 0 0 0 0 127 255 0
15.699 30.6413 -3.24513 29 0.084053 -0.126494 -0.164721 -0.821202 0 0 0 0 0.488519 0.511481 0 0 0 0 0 0 0 0 0 0 0 0 0 0 0 0 0 0.488519 0.511481 130 0 125
2.349 33.403 -23.5179 29 0.849706 0.326582 0 -1 0 0 0 0 0 0 0 0 0 0 0 0 0 0 1 0 0 0 0 0 0.525614 0.474386 0 0 0 127 255 0
34.6096 65.9804 -11.4926 29 -0.139588 -0.168126 0 -0.155556 0 0 0 0 0 0 0 0 0 0 0 0 0 0 0 0 1 0 0 0 0.921729 0.0782709 0 0 0 127 255 0
-1.812 68.6312 4.28 29 0.999865 0.906563 0.0796187 -0.866667 0 0 0 0 1 0 0 0 0 0 0 0 0 0 0 0 0 0 0 0 1 0 0 0 0 255 0 0
9.4215 60.7137 8.91463 29 0.190359 -0.198271 0.0874592 -0.25158 0 0 0 0 0 0.123005 0 0 0 0 0 0 0 0 0 0 0 0 0 0.876995 0.123005 0 0 0.876995 0 31 0 224
29.606 62.3775 21.242 29 0.0749693 -0.100848 0 0.852553 0 0 0 0.0912375 0 0 0 0 0 0 0 0 0 0.908763 0 0 0 0 0 0 0.908763 0.0912375 0 0 0 127 255 0
20.4656 62.6763 31.26 29 0.999893 0.0299567 0 -0.355556 0 0 0 0 0 0 1 0 0 0 0 0 0 0 0 0 0 0 0 0 1 0 0 0 0 127 255 0
-7.75087 27.7358 -11.4789 29 0.106054 -0.38142 -0.00651959 -0.101322 0 0 0 0 0 0 0 0.888106 0 0 0 0 0 0 0 0.111894 0 0 0 0 0.111894 0 0 0.888106 0 14 29 226
12.9446 55.0245 -10.822 29 -0.999879 0.037764 0 -0.510651 0 0 0 0 0.470782 0 0 0 0 0 0 0 0 0 0 0 0 0 0 0.529218 0.68586 0.31414 0 0 0 127 255 0
38.3024 70.9936 18.5292 29 0.146825 -0.225227 -0.0718304 0.397813 0 0 0 0.687034 0 0 0 0 0 0 0 0 0 0 0 0 0 0.312966 0 0 0.687034 0 0 0.312966 0 87 175 80
21.2467 79.0176 2.44925 29 0.216965 0.243874 0.791747 -0.933313 0 0 0 0 0.500157 0 0 0 0 0 0 0 0 0 0.499843 0 0 0 0 0 1 0 0 0 0 255 0 0
44.3049 82.9088 1.05275 29 0.999874 -0.070869 0 0.844444 0 0 0 0 0 0 0 0 0 0 0 0 0 1 0 0 0 0 0 0 0.757173 0.242827 0 0 0 127 255 0
7.31 66.0703 37.067 29 0.364353 0.0670803 0 -1 0 0 0 0 0 0 0 0 0 0 0 0 0 0 1 0 0 0 0 0 1 0 0 0 0 127 255 0
-10.8754 32.14 1.69313 29 -0.0342151 -0.0444693 0 -0.777778 0 0 0 0 0 0 0 0 0 0 0 0 0 0 0 0 0 1 0 0 0 1 0 0 0 127 255 0
-18.0491 30.5145 -11.242 29 0.999913 0.258406 0.686106 -0.777778 0 0 1 0 0 0 0 0 0 0 0 0 0 0 0 0 0 0 0 0 1 0 0 0 0 255 0 0
43.933 71.6905 -4.74925 29 0.400866 -0.564467 -0.79189 -0.777778 0 0 0 0 0 0 0 0 0 0 0 0 0 0 0 0 0 1 0 0 0 0 0 1 0 0 0 255
-8.57137 51.4919 12.7801 29 -0.104365 -0.127294 0 1 0 0 0 0 0 0 0 0 0 0 0 0 1 0 0 0 0 0 0 0 0 1 0 0 0 127 255 0
-2.5055 67.5735 12.7992 29 0.999907 0.182168 0.316196 -0.155556 0 0 0 0 0 0 0 0 0 0 0 0 0 0 0 0 1 0 0 0 1 0 0 0 0 255 0 0
26.062 22.8501 10.662 29 -0.0853596 0.0154941 0 0.80942 0 0 0 0 0 0 0 0 0 0.504479 0 0 0.495521 0 0 0 0 0 0 0 1 0 0 0 0 127 255 0
-10.3009 34.117 -8.40337 29 -0.999887 -0.208006 -0.0597113 0.224084 0 0 0 0 0 0 0 0 0 0.515777 0 0 0 0 0 0.484223 0 0 0 0 0.484223 0 0 0.515777 0 61 123 132
-3.63838 29.813 11.1257 29 0.999895 -0.0645403 0 0.933333 0 0 0 1 0 0 0 0 0 0 0 0 0 0 0 0 0 0 0 0 1 0 0 0 0 127 255 0
8.76713 28.592 -8.09888 29 -0.537758 -0.150458 -0.117036 -0.854109 0 0 0 0 0.858726 0 0 0 0 0 0 0 0 0 0 0 0 0.141274 0 0 0.858726 0 0 0.141274 0 109 219 36
17.6729 44.5197 11.5351 29 -0.339703 0.445023 0 -0.866667 0 0 0 0 1 0 0 0 0 0 0 0 0 0 0 0 0 0 0 0 1 0 0 0 0 127 255 0
26.024 82.127 -8.324 29 0.999922 0.062986 0.631789 -0.777778 0 0 1 0 0 0 0 0 0 0 0 0 0 0 0 0 0 0 0 0 1 0 0 0 0 255 0 0
3.8705 69.1966 -9.76013 29 0.806193 0.699247 0.59717 -0.866667 0 0 0 0 1 0 0 0 0 0 0 0 0 0 0 0 0 0 0 0 1 0 0 0 0 255 0 0
29.448 54.3587 22.7521 29 -0.0153324 0.062834 0 -0.560964 0 0 0 0 0 0.486495 0.513505 0 0 0 0 0 0 0 0 0 0 0 0 0 1 0 0 0 0 189 131 0
13.3462 28.3158 7.63088 29 -0.999902 0.084538 0 0.555556 1 0 0 0 0 0 0 0 0 0 0 0 0 0 0 0 0 0 0 0 0 0 1 0 0 255 255 0
40.8262 79.319 5.3865 29 -0.733977 -0.0936703 0 -0.00281989 0 0.547103 0 0.452897 0 0 0 0 0 0 0 0 0 0 0 0 0 0 0 0 0.452897 0.547103 0 0 0 127 255 0
14.3787 51.1045 15.2327 29 -0.0556835 -0.522103 0 -0.777778 0 0 0 0 0 0 0 0 0 0 0 0 0 0 0 0 0 1 0 0 0 0 0 1 0 0 0 255
1.1155 66.0975 24.7651 29 0.300499 0.0359463 0.19398 -0.165103 0 0 0 0 0 0 0 0 0 0 0 0 0 0 0 0 0.570384 0 0 0.429616 1 0 0 0 0 200 110 0
31.6645 61.7796 11.2305 29 0.166377 -0.10108 0 0.844444 0 0 0 0 0 0 0 0 0 0 0 0 0 1 0 0 0 0 0 0 1 0 0 0 0 127 255 0
-12.6461 26.842 -17.0093 29 0.0674668 -0.286122 0 -0.777778 0 1 0 0 0 0 0 0 0 0 0 0 0 0 0 0 0 0 0 0 0 0 0 1 0 0 0 255
8.90644 47.3164 9.976 29 -0.0861004 0.91442 0.857848 -0.866667 0 0 0 0 1 0 0 0 0 0 0 0 0 0 0 0 0 0 0 0 1 0 0 0 0 255 0 0
34.6942 39.0509 25.9139 29 -0.0737059 -0.0518123 0.230083 -0.00908091 0 0 0.450931 0 0 0 0 0 0 0.549069 0 0 0 0 0 0 0 0 0 0 0.450931 0 0 0.549069 0 115 0 140
-12.0344 26.0736 -0.8655 29 0.999887 -0.073808 0 0.933333 0 0 0 1 0 0 0 0 0 0 0 0 0 0 0 0 0 0 0 0 1 0 0 0 0 127 255 0
13.4683 16.0504 17.408 29 0.142554 -0.531307 -0.356813 -1 0 0 0 0 0 0 0 0 0 0 0 0 0 0 1 0 0 0 0 0 0 0 0 1 0 0 0 255
16.7342 73.9359 13.6562 29 -0.145296 -0.000781723 0 -0.866256 0 0 0 0 0.995365 0 0 0 0 0 0 0 0 0 0 0 0 0.00463545 0 0 0.980702 0.014663 0 0.00463545 0 126 254 1
-0.22675 42.6413 14.3895 29 0.114959 0.101929 -0.903347 -0.177778 0 0 0 0 0 0 0 0 0 0 0 0 0 0 0 0 0 0 0 1 0.077216 0 0 0.922784 0 10 20 235
16.3772 38.9484 35.621 29 0.39584 -0.105832 0 -0.177778 0 0 0 0 0 0 0 0 0 0 0 0 0 0 0 0 0 0 0 1 0.743542 0.256458 0 0 0 127 255 0
12.3864 54.522 36.6946 29 0.867081 -0.660267 -0.625885 -0.777778 0 0 0 0 0 1 0 0 0 0 0 0 0 0 0 0 0 0 0 0 0 0 0 1 0 0 0 255
16.2691 55.7221 24.2918 29 -0.999845 -0.0119102 0.786233 -1 0 0 0 0 0 0 0 0 0 0 0 0 0 0 1 0 0 0 0 0 1 0 0 0 0 255 0 0
31.9989 32.9055 1.826 29 0.168297 0.051046 0 -0.155556 0 0 0 0 0 0 0 0 0 0 0 0 0 0 0 0 1 0 0 0 1 0 0 0 0 127 255 0
24.0814 11.6396 12.2381 29 0.999863 -0.637007 -0.0338452 -0.777778 0 0 0 0 0 0 0 0 0 0 0 0 0 0 0 0 0 1 0 0 0 0 0 1 0 0 0 255
-4.83962 50.9501 -27.9326 29 0.79961 -0.167737 0 -0.777778 0 0 0 0 0 1 0 0 0 0 0 0 0 0 0 0 0 0 0 0 0.0969535 0 0 0 0.903047 255 0 0
-6.92625 52.4593 -17.4963 29 0.094767 -0.213029 0 -0.777778 0 0 0 0 0 0 0 0 0 0 0 0 0 0 0 0 0 1 0 0 1 0 0 0 0 127 255 0
-8.00425 39.6924 20.6684 29 0.999869 0.0132651 0 0.933333 0 0 0 1 0 0 0 0 0 0 0 0 0 0 0 0 0 0 0 0 1 0 0 0 0 127 255 0
38.6156 34.5559 12.8226 29 0.999876 -0.660537 -0.45951 0.4 0 0 0 0 0 0 0 0 0 0 1 0 0 0 0 0 0 0 0 0 0 0 0 1 0 0 0 255
8.625 70.0452 15.9824 29 0.999898 -0.683407 -0.683505 -0.777778 0 0 0 0 0 1 0 0 0 0 0 0 0 0 0 0 0 0 0 0 0 0 0 1 0 0 0 255
20.28 48.2845 -5.846 29 0.215608 -0.076171 0 0.36818 0 0 0 0 0 0 0.466097 0 0 0 0 0 0.533903 0 0 0 0 0 0 0 0.688935 0.311065 0 0 0 127 255 0
32.1957 28.3053 26.9112 29 0.0643556 0.0673763 0.432801 -0.57218 0 0 0 0 0.572518 0 0 0 0 0 0 0 0 0 0 0 0 0 0 0.427482 0.802114 0.197886 0 0 0 200 109 0
13.4226 26.4375 29.5742 29 0.0523543 0.036688 0 -0.777778 0 0 1 0 0 0 0 0 0 0 0 0 0 0 0 0 0 0 0 0 0.0600338 0.939966 0 0 0 127 255 0
11.909 63.478 23.565 29 0.116693 0.0433977 0 0.555556 1 0 0 0 0 0 0 0 0 0 0 0 0 0 0 0 0 0 0 0 1 0 0 0 0 127 255 0
34.4588 47.6925 18.926 29 0.130028 -0.226131 0 -0.777778 0 0 0 0 0 0 0 0 0 0 0 0 0 0 0 0 0 1 0 0 1 0 0 0 0 127 255 0
28.353 38.4228 30.4799 29 0.0851471 0.028956 0 -0.866667 0 0 0 0 1 0 0 0 0 0 0 0 0 0 0 0 0 0 0 0 0.262135 0.737865 0 0 0 127 255 0
-10.3495 50.507 30.6935 29 -0.106048 0.192295 0.267087 -0.439211 0 0 0 0 0.379499 0 0 0 0 0 0 0 0 0 0 0 0 0 0 0.620501 1 0 0 0 0 176 158 0
13.7669 45.9123 24.7822 29 -0.0856082 0.056637 -0.0660165 -0.485189 0 0 0 0 0 0.575275 0 0.424725 0 0 0 0 0 0 0 0 0 0 0 0 0.575275 0 0 0.424725 0 73 147 108
5.32494 57.9271 -12.6647 29 -0.146009 -0.0136364 0 -0.777778 0 0 1 0 0 0 0 0 0 0 0 0 0 0 0 0 0 0 0 0 0.442509 0.557491 0 0 0 127 255 0
10.46 67.2755 -8.2455 29 0.2076 0.0532147 0 -0.355556 0 0 0 0 0 0 1 0 0 0 0 0 0 0 0 0 0 0 0 0 1 0 0 0 0 127 255 0
-3.72513 59.6185 36.0022 29 -0.0658697 0.099401 0 0.635976 0 0 0 0.732378 0 0 0 0 0 0 0 0 0 0 0 0 0 0 0 0.267622 0.732378 0 0 0 0.267622 161 187 0
-13.5556 40.7146 -10.4417 29 0.0498311 -0.0252244 0 -0.0888889 0 0 0 0 0 0 0 1 0 0 0 0 0 0 0 0 0 0 0 0 1 0 0 0 0 127 255 0
26.8647 45.7472 3.43469 29 0.246451 -0.05824 0 -0.7348 0 0 0 0 0 0.973506 0 0 0 0 0 0 0 0.0264937 0 0 0 0 0 0 0.973506 0.0264937 0 0 0 127 255 0
11.455 42.493 -20.6475 29 0.214895 -0.00567317 0 -0.0888889 0 0 0 0 0 0 0 1 0 0 0 0 0 0 0 0 0 0 0 0 0.763909 0.236091 0 0 0 127 255 0
13.3263 41.3952 15.6038 29 0.157899 -0.147564 -0.761837 -0.777778 0 0 0 0 0 0 0 0 0 0 0 0 0 0 0 0 0 1 0 0 0.160041 0 0 0.839959 0 20 41 214
-1.328 23.7787 4.5855 29 0.140147 -0.0170848 0 -0.355556 0 0 0 0 0 0 1 0 0 0 0 0 0 0 0 0 0 0 0 0 0.239276 0.760724 0 0 0 127 255 0
-1.65706 51.4649 2.48819 29 0.0860464 -0.141316 0 0.590431 0 0 0 0 0 0 0 0 0 0 0 0 0 0.77587 0 0 0 0 0.22413 0 0.77587 0.22413 0 0 0 127 255 0
31.5029 52.2231 11.7291 29 0.174756 -0.52709 -0.753251 -0.178174 0 0 0 0 0 0 0 0.870392 0 0 0 0 0 0 0 0 0 0.129608 0 0 0 0 0 1 0 0 0 255
3 79 51 34
3 1 9 63
3 64 9 79
3 21 27 51
3 21 51 9
3 33 79 39
3 79 33 39
3 54 34 27
3 83 54 33
3 27 33 54
3 33 57 10
3 54 83 40
3 40 33 54
3 81 21 12
3 63 64 3
3 57 33 40
3 64 76 3
3 36 84 10
3 41 81 20
3 19 83 46
3 81 7 20
3 20 7 11
3 57 5 18
3 57 40 5
3 44 24 23
3 74 65 18
3 57 82 5
3 14 68 28
3 77 28 44
3 82 42 52
3 70 5 55
3 5 40 55
3 55 40 19
3 77 14 28
3 19 62 55
3 23 24 44
3 5 16 18
3 61 38 19
3 80 2 68
3 44 24 67
3 67 24 71
3 56 43 77
3 77 44 56
3 73 70 69
3 80 46 2
3 77 43 15
3 38 61 66
3 56 67 71
3 78 74 17
3 16 75 59
3 69 55 62
3 80 85 61
3 50 85 80
3 43 56 30
3 44 67 56
3 69 62 38
3 82 48 59
3 35 50 22
3 48 60 59
3 25 85 50
3 45 73 53
3 25 50 8
3 31 35 22
3 13 30 29
3 72 25 45
3 35 31 8
3 6 60 25
3 0 25 8
3 29 0 8
3 0 6 25
3 47 13 8
3 79 9 51
3 34 51 27
3 39 79 34
3 10 64 79
3 79 39 10
3 33 39 54
3 54 39 34
3 84 64 10
3 10 39 33
3 1 12 21
3 27 83 33
3 21 41 27
3 21 81 41
3 76 12 1
3 76 1 3
3 46 83 20
3 65 36 57
3 24 28 76
3 48 24 84
3 44 28 24
3 18 65 57
3 24 48 84
3 37 84 36
3 57 5 52
3 68 7 28
3 82 52 48
3 20 2 46
3 24 37 71
3 2 11 68
3 49 71 37
3 17 74 18
3 62 19 38
3 77 15 14
3 5 75 16
3 80 61 46
3 78 49 37
3 17 18 16
3 85 72 61
3 22 50 68
3 17 16 59
3 69 38 66
3 68 50 80
3 56 71 29
3 58 73 75
3 72 66 61
3 30 56 29
3 78 32 49
3 22 15 31
3 52 82 57
3 42 82 75
3 75 82 59
3 73 4 75
3 4 73 45
3 69 66 73
3 6 29 71
3 48 45 60
3 75 4 45
3 73 66 53
3 31 43 47
3 6 26 60
3 45 25 60
3 13 29 8
3 13 8 0
3 29 6 0
3 8 31 47
3 1 21 9
3 64 63 9
3 1 63 3
3 27 20 83
3 27 41 20
3 64 84 76
3 76 84 24
3 12 7 81
3 12 76 28
3 10 57 36
3 83 19 40
3 12 28 7
3 84 37 24
3 36 65 74
3 2 20 11
3 52 5 82
3 52 42 48
3 48 42 75
3 68 11 7
3 74 37 36
3 61 19 46
3 78 37 74
3 5 58 75
3 58 5 70
3 69 70 55
3 22 68 14
3 14 15 22
3 71 49 32
3 58 70 73
3 71 60 26
3 71 32 60
3 17 59 78
3 32 78 59
3 53 66 72
3 50 35 8
3 43 31 15
3 75 45 48
3 85 25 72
3 30 13 43
3 26 6 71
3 60 32 59
3 47 43 13
3 13 0 8
3 53 72 45
